<?xml version="1.0" encoding="utf-8"?>
<!-- Generator: Adobe Illustrator 17.1.0, SVG Export Plug-In . SVG Version: 6.00 Build 0)  -->
<!DOCTYPE svg PUBLIC "-//W3C//DTD SVG 1.1//EN" "http://www.w3.org/Graphics/SVG/1.1/DTD/svg11.dtd">
<svg version="1.1" id="Layer_1" xmlns="http://www.w3.org/2000/svg" xmlns:xlink="http://www.w3.org/1999/xlink" x="0px" y="0px"
	 viewBox="0 0 612 792" enable-background="new 0 0 612 792" xml:space="preserve">
<g opacity="0.95">
	<path fill="#777777" d="M343,199.7c15.9,0.6,33.1,1.3,47.2,1.3c14,0,28.7-0.6,43.4-1.3c3.8,3.8,3.8,15.9,0,19.8
		c-31.2,4.5-44,27.4-58.6,55.5l-43.4,82.9L408,515.2h2.6l112.8-244.8c14-32.5,13.4-48.5-25.5-51c-3.8-3.8-3.8-15.9,0-19.8
		c22.3,0.6,45.3,1.3,58.6,1.3c13.4,0,33.1-0.6,52.3-1.3c3.8,3.8,3.8,15.9,0,19.8c-33.8,3.8-45.3,26.8-58.6,55.5L409.9,578.3
		c-4.5,8.9-7.6,13.4-14,13.4c-5.7,0-10.8-5.1-13.4-13.4l-81-172.8l-88,172.8c-3.8,8.9-7.7,13.4-14,13.4c-5.7,0-10.2-4.5-13.4-13.4
		l-130-304.7c-17.9-42.1-22.3-52.3-53.5-54.2c-3.8-3.8-4.5-15.9-0.6-19.8c21,0.6,42.1,1.3,61.8,1.3c17.8,0,42.1-0.6,66.3-1.3
		c3.8,3.8,3.8,15.9,0,19.8c-37.6,4.5-39.5,13.4-24.2,47.8l109,248.6h2.6l66.3-135.2l-50.4-106.5c-19.8-42.1-24.9-50.4-50.4-54.2
		c-3.8-3.8-4.5-15.9-0.6-19.8c17.2,0.6,35.7,1.3,52.9,1.3c19.1,0,37-0.6,54.2-1.3c3.8,3.8,3.8,15.9,0,19.8
		c-24.9,3.8-22.9,13.4-6.4,47.8l29.3,59.9l2.6,2.6l31.9-59.3c18.5-34.4,21-47.8-4.5-51C339.8,215.6,339.8,203.5,343,199.7z"/>
</g>
</svg>
