<?xml version="1.0" encoding="UTF-8"?>
<svg xmlns="http://www.w3.org/2000/svg" xmlns:xlink="http://www.w3.org/1999/xlink" width="245" height="108" viewBox="0 0 245 108">
	<g id="a" fill="#c8ccd1">
		<path fill="#fff" stroke="#72777d" stroke-width="2" d="M84.9 17v83.8c0 1.1-.6 1.3-1.3.5 0 0-.4-1-2.1-1s-1.6 1.4-3.2 1.8c-1.6.4-1.6-1.8-3.3-1.8-1.7 0-1.8 1.8-3.4 1.8-1.6 0-1.5-1.8-3.3-1.8-1.8 0-1.9 1.8-3.5 1.8-1.5 0-1.5-1.8-3.3-1.8-1.8 0-1.8 1.8-3.4 1.8s-1.5-1.8-3.2-1.8-1.6 1.4-3.3 1.8c-1.6.4-1.9-1.8-3.6-1.8-1.6 0-1.8 1.8-3.3 1.8-1.6 0-1.3-1.8-3.1-1.8s-1.9 1.8-3.6 1.8c-1.6 0-1.8-1.8-3.5-1.8s-1.5 1.8-3.2 1.8-1.7-1.8-3.4-1.8l-3.3 1.8c-1.6 0-1.6-1.8-3.3-1.8-1.8 0-1.8 1.8-3.5 1.8-1.6 0-1.5-1.8-2.9-1.8s-2 2.3-3.6 1.8-1.4-1.8-3.1-1.8l-1.8.9c-.7.9-1.2.7-1.2-.4V48.1l.2-40.3c0-1.1.9-2 2-2h66.4"/>
		<path stroke="#72777d" stroke-width="2" d="M74.4 16.9h9.9c.1 0 .2-.1.2-.3 0-.1 0-.2-.1-.2l-.1-.1-9.8-10.1c-.1-.1-.1-.1-.2 0-.1 0-.1.1-.1.2v10.2c-.1.2.1.3.2.3z"/>
		<path d="M13.1 30.6h43.1c.3 0 .6.3.6.6s-.3.6-.6.6H13.1c-.3 0-.6-.3-.6-.6s.3-.6.6-.6z"/>
		<path fill="#a2a9b1" d="M13.1 45.2h48c.3 0 .6.3.6.6s-.3.6-.6.6h-48c-.3 0-.6-.3-.6-.6s.3-.6.6-.6zm0 32.7h18.2c.3 0 .6.3.6.6s-.3.6-.6.6H13.1c-.3 0-.6-.3-.6-.6s.3-.6.6-.6zm21.3 0h43.1c.3 0 .6.3.6.6s-.3.6-.6.6H34.4c-.3 0-.6-.3-.6-.6-.1-.3.2-.6.6-.6zM13.1 53.7h9.1c.3 0 .6.3.6.6s-.3.6-.6.6h-9.1c-.3 0-.6-.3-.6-.6 0-.4.3-.6.6-.6zm55.2 0h9.1c.3 0 .6.3.6.6s-.3.6-.6.6h-9.1c-.3 0-.6-.3-.6-.6 0-.4.3-.6.6-.6zm-43.1 0h40.1c.3 0 .6.3.6.6s-.3.6-.6.6H25.2c-.3 0-.6-.3-.6-.6 0-.4.3-.6.6-.6zm-12.1 20h9.1c.3 0 .6.3.6.6s-.3.6-.6.6h-9.1c-.3 0-.6-.3-.6-.6s.3-.6.6-.6zm43.7 0H78c.3 0 .6.3.6.6s-.3.6-.6.6H56.8c-.3 0-.6-.3-.6-.6s.3-.6.6-.6zm-31.6 0h28.5c.3 0 .6.3.6.6s-.3.6-.6.6H25.2c-.3 0-.6-.3-.6-.6s.3-.6.6-.6zm52.2-28.5H64.1c-.3 0-.6.3-.6.6s.3.6.6.6h13.4c.3 0 .6-.3.6-.6s-.3-.6-.7-.6zM13.1 66.4h48c.3 0 .6.3.6.6s-.3.6-.6.6h-48c-.3 0-.6-.3-.6-.6s.3-.6.6-.6zm32.8-25.5h7.3c.3 0 .6.3.6.6s-.3.6-.6.6h-7.3c-.3 0-.6-.3-.6-.6s.2-.6.6-.6zm10.3 0h21.2c.3 0 .6.3.6.6s-.3.6-.6.6H56.2c-.3 0-.6-.3-.6-.6s.3-.6.6-.6zm-43.1 0h29.7c.3 0 .6.3.6.6s-.3.6-.6.6H13.1c-.3 0-.6-.3-.6-.6s.3-.6.6-.6zm0 21.3h64.3c.3 0 .6.3.6.6s-.3.6-.6.6H13.1c-.3 0-.6-.3-.6-.6 0-.4.3-.6.6-.6zm0-4.3h64.3c.3 0 .6.3.6.6s-.3.6-.6.6H13.1c-.3 0-.6-.3-.6-.6s.3-.6.6-.6zm0 28.5h9.1c.3 0 .6.3.6.6s-.3.6-.6.6h-9.1c-.3 0-.6-.3-.6-.6s.3-.6.6-.6zm55.2 0h9.1c.3 0 .6.3.6.6s-.3.6-.6.6h-9.1c-.3 0-.6-.3-.6-.6s.3-.6.6-.6zm-43.1 0h40.1c.3 0 .6.3.6.6s-.3.6-.6.6H25.2c-.3 0-.6-.3-.6-.6s.3-.6.6-.6zm-12.1 8.5h64.3c.3 0 .6.3.6.6s-.3.6-.6.6H13.1c-.3 0-.6-.3-.6-.6s.3-.6.6-.6zm0-4.2h64.3c.3 0 .6.3.6.6s-.3.6-.6.6H13.1c-.3 0-.6-.3-.6-.6 0-.4.3-.6.6-.6zm0-8.5h64.3c.3 0 .6.3.6.6s-.3.6-.6.6H13.1c-.3 0-.6-.3-.6-.6 0-.4.3-.6.6-.6zm0-32.8h64.3c.3 0 .6.3.6.6s-.3.6-.6.6H13.1c-.3 0-.6-.3-.6-.6s.3-.6.6-.6zm-.6-23c0-.7.5-1.2 1.2-1.2h28.5c.7 0 1.2.5 1.2 1.2s-.5 1.2-1.2 1.2H13.7c-.7 0-1.2-.5-1.2-1.2z"/>
	</g>
	<use xlink:href="#a" transform="translate(154.877 0)"/>
	<path fill="#202122" d="M40.2 62.3h10.1l-4.9-13.8h-.1l-5.1 13.8zm.8-24h8.7L64.2 77h-8.8l-2.9-8.6H38L35 77h-8.5L41 38.3z"/>
	<path fill="#202122" d="M220.877 70.4l-3.3 6c-5.7-2.2-12.2-5.9-16.7-9.8-4.7 4.1-10.4 7.5-17.1 10.4-1.2-1.9-2.3-3.8-3.4-5.6 7.6-2.9 12-5.8 16.2-9.3-3.8-4.5-7.1-9-9.3-15.1h-5.3v-5.6h15.4v-5.8h6.3v5.8h15.7V47h-5.1c-2.2 6-5.2 11-9.1 15.3 4.4 3.6 10.7 6.8 15.7 8.1zm-26.7-23.8c1.7 4.6 4.5 8 7.1 11.1 2.5-2.7 4.8-6 6.7-11.1h-13.8z"/>
	<path fill="#36c" d="M131 47.5l-1.7 1.7 6.6 6.8h-31v2.4h31l-6.6 6.8 1.7 1.7 9.5-9.7z"/>
</svg>
