<svg xmlns="http://www.w3.org/2000/svg" viewBox="0 0 264 162" enable-background="new 0 0 264 162"><path fill="#fff" d="M239.2 151.4l-13.9 10-9.8-8v-110.9h-155v114.2l-7.6-5.3-4.4 3.7v-112.6h-39v116.5l-9-6.7v-151.8h263v151.2l-12.9 9.6-11.4-9.9z"/><path fill="#E5E5E5" d="M1 1h262v150.5l-12.3 9.2-10.9-9.5-.6-.5-.6.5-13.3 9.6-9.3-7.7v-111.1h-156v113.7l-6.5-4.6-.6-.4-.6.5-3.3 2.8v-112h-40v116l-8-6v-151m-1 151.5l10 7.4v-116.9h38v113.2l4.9-4.2 8.1 5.7v-114.7h154v110.6l10.2 8.4 13.9-10 11.5 10 13.4-10v-152h-264v152.5zM61 157.7l5.8 4.3 13-10 13 10 14.2-10 13.4 10 12.1-10 13.8 10 13-10 13 10 14.2-10 13.8 10 12.6-10 2.1 1.6v-110.6h-154v114.7zM239 50c-7.7 0-14-6.3-14-14s6.3-14 14-14 14 6.3 14 14-6.3 14-14 14zM12.7 162l13.9-10 13.8 10 7.6-5.8v-113.2h-38v116.9l2.7 2.1zM251 107v-35h-25v35h25zM31.5 5v6h-26v-6h26zM55.5 11h-22v-6h22v6zM122 6h92v4h-92v-4m-1 5h94v-6h-94v6zM79.5 11h-22v-6h22v6zM102.5 11h-13v-6h13v6zM87.5 11h-6v-6h6v6zM110.5 11h-6v-6h6v6zM255 11h-32v-6h32v6z"/><path fill="#E5E5E5" stroke="#E5E5E5" d="M2 14.5h260"/><path fill="#E5E5E5" d="M212 9h-2v-2h2v2zM251 59v-5h-25v5h25zM251 132v-35h-25v35h25z"/><path fill="#fff" d="M248.7 108.7v2c0 .1-.1.1-.2.1h-20.1c-.1 0-.2 0-.2-.1v-2c0-.1.1-.1.2-.1h20.1c.2-.1.2 0 .2.1zM248.7 113.9v2c0 .1-.1.1-.2.1h-20.1c-.1 0-.2 0-.2-.1v-2c0-.1.1-.1.2-.1h20.1c.2-.1.2 0 .2.1z"/><path fill="#D11D13" d="M248.7 103.5v2c0 .1-.1.1-.2.1h-20.1c-.1 0-.2 0-.2-.1v-2c0-.1.1-.1.2-.1h20.1c.2-.1.2 0 .2.1z"/><path fill="#fff" d="M248.7 119.1v2c0 .1-.1.1-.2.1h-20.1c-.1 0-.2 0-.2-.1v-2c0-.1.1-.1.2-.1h20.1c.2-.1.2 0 .2.1zM248.7 124.3v2c0 .1-.1.1-.2.1h-20.1c-.1 0-.2 0-.2-.1v-2c0-.1.1-.1.2-.1h20.1c.2 0 .2 0 .2.1z"/><path fill="#347BFF" d="M209.5 57.2v34.9l13.5 12.2-13.5 12.2v23.5h-139v-82.8z"/><g fill="#fff"><path d="M138.3 103.7c-4.6-4.5-8.6-8.4-10.9-17.5h16v-6.8h-16v-8.9h-6.9v9h-16v6.8h16v2.3c-2.3 8.9-5 14.6-16 20.2l2.3 6.8c10.4-5.6 15.9-12.5 18.3-20.3 2.3 5.9 6.2 10.6 10.6 15.1l2.6-6.7zM159.5 81.7h-9.2l-16 45.1h6.9l4.6-13.5h18.2l4.6 13.5h6.9l-16-45.1zm-11.5 24.8l6.9-18 6.9 18h-13.8z"/></g></svg>