<svg xmlns="http://www.w3.org/2000/svg" viewBox="0 0 264 162" enable-background="new 0 0 264 162"><path fill="#fff" d="M13.4 161.4l-12.9-9.6v-151.3h263v151.7l-9 6.7v-116.4h-39v112.6l-4.4-3.7-7.6 5.3v-114.2h-155v110.8l-9.8 8-13.9-10-11.4 10.1z"/><path fill="#E5E5E5" d="M263 1v151l-8 6v-116h-40v112l-3.3-2.8-.6-.5-.6.4-6.5 4.6v-113.7h-156v111.1l-9.3 7.7-13.3-9.6-.6-.5-.6.5-10.9 9.5-12.3-9.2v-150.5h262m1-1h-264v152l13.4 10 11.5-10 13.9 10 10.2-8.4v-110.6h154v114.7l8.1-5.7 4.9 4.2v-113.2h38v117l10-7.4v-152.6zM203 157.7v-114.7h-154v110.6l2.1-1.6 12.6 10 13.8-10 14.2 10 13-10 13 10 13.8-10 12.1 10 13.4-10 14.2 10 13-10 13 10 5.8-4.3zM11 36c0-7.7 6.3-14 14-14s14 6.3 14 14-6.3 14-14 14-14-6.3-14-14zM254 159.9v-116.9h-38v113.2l7.6 5.8 13.8-10 13.9 10 2.7-2.1zM38 107v-35h-25v35h25zM232.5 5h26v6h-26v-6zM208.5 5h22v6h-22v-6zM142 6v4h-92v-4h92m1-1h-94v6h94v-6zM184.5 5h22v6h-22v-6zM161.5 5h13v6h-13v-6zM176.5 5h6v6h-6v-6zM153.5 5h6v6h-6v-6zM9 5h32v6h-32v-6z"/><path fill="#E5E5E5" stroke="#E5E5E5" d="M2 14.5h260"/><path fill="#E5E5E5" d="M52 7h2v2h-2v-2zM38 59v-5h-25v5h25zM38 132v-35h-25v35h25z"/><path fill="#fff" d="M15.4 108.5h20.1c.1 0 .2 0 .2.1v2c0 .1-.1.1-.2.1h-20.1c-.1 0-.2 0-.2-.1v-2l.2-.1zM15.4 113.7h20.1c.1 0 .2 0 .2.1v2c0 .1-.1.1-.2.1h-20.1c-.1 0-.2 0-.2-.1v-2l.2-.1z"/><path fill="#D11D13" d="M15.4 103.3h20.1c.1 0 .2 0 .2.1v2c0 .1-.1.1-.2.1h-20.1c-.1 0-.2 0-.2-.1v-2l.2-.1z"/><path fill="#fff" d="M15.4 118.9h20.1c.1 0 .2 0 .2.1v2c0 .1-.1.1-.2.1h-20.1c-.1 0-.2 0-.2-.1v-2l.2-.1zM15.4 124.2h20.1c.1 0 .2 0 .2.1v2c0 .1-.1.1-.2.1h-20.1c-.1 0-.2 0-.2-.1v-2c.1-.1.1-.1.2-.1z"/><path fill="#347BFF" d="M54.5 57.2v34.9l-13.5 12.2 13.5 12.2v23.5h139v-82.8z"/><g fill="#fff"><path d="M122.3 103.7c-4.6-4.5-8.6-8.4-10.9-17.5h16v-6.8h-16v-8.9h-6.9v9h-16v6.8h16v2.3c-2.3 8.9-5 14.6-16 20.2l2.3 6.8c10.4-5.6 15.9-12.5 18.3-20.3 2.3 5.9 6.2 10.6 10.6 15.1l2.6-6.7zM143.5 81.7h-9.2l-16 45.1h6.9l4.6-13.5h18.2l4.6 13.5h6.9l-16-45.1zm-11.5 24.8l6.9-18 6.9 18h-13.8z"/></g></svg>