<?xml version="1.0" encoding="UTF-8" standalone="no"?>
<svg width="92" height="92" viewBox="0 0 92 92" xmlns="http://www.w3.org/2000/svg">
    <g id="Page-1" fill="none">
        <path d="M46 92c25.405 0 46-20.595 46-46S71.405 0 46 0 0 20.595 0 46s20.595 46 46 46zm-1.366-41.92c-4.572-5.335-6.858-10.923-7.62-12.955h11.938l1.778-5.08H36.76v-7.62h-5.08v7.62h-12.7v5.08h12.7c-.508 2.286-3.302 12.192-12.954 19.304l3.048 4.063c6.858-5.08 10.922-11.43 12.954-16.256 1.778 3.302 4.318 7.62 8.128 11.43l1.778-5.588zm3.556 17.525l3.302-10.16h13.462l3.302 10.16h5.588L62.16 32.045h-7.62l-11.938 35.56h5.588zm10.16-30.48l5.08 15.24H53.27l5.08-15.24z" id="cx-circle" fill="#ccc"/>
    </g>
</svg>
