<?xml version="1.0" encoding="UTF-8"?>
<svg xmlns="http://www.w3.org/2000/svg" width="92px" height="92px" viewBox="-374 549.5 92 92">
	<g id="g5" fill="#c8ccd1">
		<path id="polygon7" d="M-309.6 602.1l-5.2-15.7-5.3 15.7z"/>
		<path d="M-345.3 586.4c1 3.4 2.1 5.2 4.9 7.8 2.6-2.6 3.9-4.4 4.9-7.8h-9.8z" id="path9"/>
		<path d="M-328 549.5c-25.4 0-46 20.6-46 46s20.6 46 46 46 46-20.6 46-46-20.6-46-46-46zm-12.4 52c-3.1 2.1-12.2 5.7-12.2 5.7l-3.4-4.7s8.3-2.9 11.2-4.7c-2.6-3.1-4.7-6.8-6.3-11.5h-4.2v-5.3h12.9l-2.5-4.9h5.2l2.5 4.9h14.5l-1.3 5.2h-5.7c-1.6 4.9-3.6 8.6-6.5 11.5 1.8 1.3 4.4 2.3 7 3.1l-1.6 5.2c-3.6-1.3-7-2.6-9.6-4.5zm34.7 13.6l-2.3-7.8h-13.8l-2.1 7.8h-5.7l10.9-33.9h7.8l10.9 33.9h-5.7z" id="path11"/>
	</g>
</svg>
