<?xml version="1.0" encoding="utf-8"?>
<svg xmlns="http://www.w3.org/2000/svg" preserveAspectRatio="xMidYMid" width="74" height="74" viewBox="0 0 37 37">
    <defs>
        <style>
            .cls-2 { fill: #2460cf; }
        </style>
    </defs>
    <path d="M18.5 0C8.288 0 0 8.288 0 18.5S8.288 37 18.5 37 37 28.712 37 18.5 28.712 0 18.5 0zm1.85 31.45h-3.7v-3.7h3.7v3.7zm3.83-14.338l-1.665 1.703c-1.333 1.35-2.165 2.46-2.165 5.235h-3.7v-.925c0-2.035.833-3.885 2.164-5.235l2.294-2.332c.685-.665 1.092-1.59 1.092-2.608 0-2.035-1.665-3.7-3.7-3.7s-3.7 1.665-3.7 3.7h-3.7c0-4.09 3.312-7.4 7.4-7.4 4.09 0 7.4 3.31 7.4 7.4 0 1.628-.666 3.108-1.72 4.162z" id="path-1" class="cls-2" fill-rule="evenodd"/>
</svg>
