<?xml version="1.0" encoding="UTF-8" standalone="no"?><svg xmlns="http://www.w3.org/2000/svg" viewBox="0 0 24 24"><path d="M6 11c-.5 0-1.006.194-1.406.594-.4.4-.594.906-.594 1.406 0 .5.194 1.006.594 1.406.4.4.806.594 1.406.594.5 0 1.006-.194 1.406-.594.4-.4.594-.806.594-1.406 0-.5-.194-1.006-.594-1.406-.4-.4-.906-.594-1.406-.594zm6 0c-.5 0-1.006.194-1.406.594-.4.4-.594.906-.594 1.406 0 .5.194 1.006.594 1.406.4.4.806.594 1.406.594.5 0 1.006-.194 1.406-.594.4-.4.594-.806.594-1.406 0-.5-.194-1.006-.594-1.406-.4-.4-.906-.594-1.406-.594zm6 0c-.5 0-1.006.194-1.406.594-.4.4-.594.906-.594 1.406 0 .5.194 1.006.594 1.406.4.4.806.594 1.406.594.5 0 1.006-.194 1.406-.594.4-.4.594-.806.594-1.406 0-.5-.194-1.006-.594-1.406-.4-.4-.906-.594-1.406-.594z" fill="#333"/></svg>
