<?xml version="1.0" encoding="UTF-8" standalone="no"?>
<!-- Created with Inkscape (http://www.inkscape.org/) -->

<svg
   xmlns:dc="http://purl.org/dc/elements/1.1/"
   xmlns:cc="http://creativecommons.org/ns#"
   xmlns:rdf="http://www.w3.org/1999/02/22-rdf-syntax-ns#"
   xmlns:svg="http://www.w3.org/2000/svg"
   xmlns="http://www.w3.org/2000/svg"
   version="1.1"
   width="100%"
   height="100%"
   viewBox="0 0 40 40"
   id="Layer_1"
   xml:space="preserve"><metadata
     id="metadata9"><rdf:RDF><cc:Work
         rdf:about=""><dc:format>image/svg+xml</dc:format><dc:type
           rdf:resource="http://purl.org/dc/dcmitype/StillImage" /><dc:title></dc:title></cc:Work></rdf:RDF></metadata><defs
     id="defs7" /><path
     d="m 17.2,34.9 c -0.6,0 -0.9,0.8 -0.5,1.2 0.9,0.8 1.6,1.5 2.2,1.5 h 2.2 c 0.6,0 1.2,-0.6 2.1,-1.5 0.5,-0.4 0.2,-1.2 -0.5,-1.2 H 17.2 z M 24,33.2 h -7.9 c -0.8,0 -1.4,-0.6 -1.4,-1.4 0,-0.8 0.6,-1.4 1.4,-1.4 H 24 c 0.8,0 1.4,0.6 1.4,1.4 0,0.8 -0.6,1.4 -1.4,1.4 z m -8,-4.5 c -0.7,0 -1.3,-0.5 -1.4,-1.2 0,-0.1 -0.3,-1.6 -1.9,-3.9 C 12.5,23.3 12.2,22.9 12,22.6 10.3,20.2 8.6,17.7 8.6,13.4 8.6,10.8 9.7,8.1 11.5,6 13.6,3.7 16.6,2.4 20,2.4 c 0.8,0 1.4,0.6 1.4,1.4 0,0.8 -0.6,1.4 -1.4,1.4 -3.2,0 -5.2,1.5 -6.3,2.7 -1.4,1.5 -2.2,3.6 -2.2,5.6 0,3.5 1.4,5.4 2.9,7.6 0.2,0.3 0.5,0.7 0.7,1 2,2.9 2.3,4.8 2.3,5 0.1,0.8 -0.4,1.4 -1.2,1.6 -0.1,0 -0.1,0 -0.2,0 z m 8,0 c -0.1,0 -0.1,0 -0.2,0 -0.8,-0.1 -1.3,-0.8 -1.2,-1.6 0,-0.2 0.4,-2.1 2.3,-5 0.2,-0.3 0.5,-0.7 0.7,-1 1.6,-2.2 2.9,-4.2 2.9,-7.6 0,-1.9 -0.9,-4 -2.3,-5.6 C 24.6,6.2 22.4,5.2 20,5.2 19.2,5.2 18.6,4.6 18.6,3.8 18.6,3 19.2,2.4 20,2.4 c 6.8,0 11.4,5.7 11.4,11 0,4.3 -1.7,6.8 -3.4,9.2 -0.2,0.3 -0.5,0.7 -0.7,1 -1.6,2.4 -1.9,3.9 -1.9,3.9 -0.1,0.7 -0.7,1.2 -1.4,1.2 z"
     id="path3"
     style="fill:#999999;fill-opacity:1" /></svg>