<?xml version="1.0" encoding="UTF-8"?>
<svg xmlns="http://www.w3.org/2000/svg" viewBox="0 0 40 40">
    <path d="M17.2 34.9c-.6 0-.9.8-.5 1.2.9.8 1.6 1.5 2.2 1.5h2.2c.6 0 1.2-.6 2.1-1.5.5-.4.2-1.2-.5-1.2h-5.5zm6.8-1.7h-7.9c-.8 0-1.4-.6-1.4-1.4 0-.8.6-1.4 1.4-1.4H24c.8 0 1.4.6 1.4 1.4 0 .8-.6 1.4-1.4 1.4zm-8-4.5c-.7 0-1.3-.5-1.4-1.2 0-.1-.3-1.6-1.9-3.9-.2-.3-.5-.7-.7-1-1.7-2.4-3.4-4.9-3.4-9.2 0-2.6 1.1-5.3 2.9-7.4 2.1-2.3 5.1-3.6 8.5-3.6.8 0 1.4.6 1.4 1.4 0 .8-.6 1.4-1.4 1.4-3.2 0-5.2 1.5-6.3 2.7-1.4 1.5-2.2 3.6-2.2 5.6 0 3.5 1.4 5.4 2.9 7.6.2.3.5.7.7 1 2 2.9 2.3 4.8 2.3 5 .1.8-.4 1.4-1.2 1.6H16zm8 0h-.2c-.8-.1-1.3-.8-1.2-1.6 0-.2.4-2.1 2.3-5 .2-.3.5-.7.7-1 1.6-2.2 2.9-4.2 2.9-7.6 0-1.9-.9-4-2.3-5.6-1.6-1.7-3.8-2.7-6.2-2.7-.8 0-1.4-.6-1.4-1.4 0-.8.6-1.4 1.4-1.4 6.8 0 11.4 5.7 11.4 11 0 4.3-1.7 6.8-3.4 9.2-.2.3-.5.7-.7 1-1.6 2.4-1.9 3.9-1.9 3.9-.1.7-.7 1.2-1.4 1.2z" id="path3" fill="#72777d"/>
</svg>
