<svg width="136px" height="136px" viewBox="0 0 136 136" version="1.1" xmlns="http://www.w3.org/2000/svg" xmlns:xlink="http://www.w3.org/1999/xlink">
    <title>publishing-launching</title>
    <defs>
        <path d="M52.8,74.8 C52.8,79.64 44,83.6 44,83.6 C44,83.6 35.2,79.64 35.2,74.8 L52.8,74.8 Z M44,30.8 C40.3939316,30.707512 37.49251,27.806064 37.4,24.2 C37.4,20.554908 40.3549256,17.6 44,17.6 C47.645092,17.6 50.6,20.554908 50.6,24.2 C50.507468,27.806064 47.606064,30.707512 44,30.8 Z M58.52,51.48 C62.04,34.76 55.88,4.4 44,4.4 C32.12,4.4 25.52,33.88 29.04,50.6 L22,66 L33.88,66 L35.2,70.4 L52.8,70.4 C53.68,69.08 53.24,68.2 54.12,66 L66,66 L58.52,51.48 Z" id="path-1"></path>
    </defs>
    <g id="publishing-launching" stroke="none" stroke-width="1" fill="none" fill-rule="evenodd">
        <g id="Group" fill="#EAF3FF">
            <circle id="Oval" cx="68" cy="68" r="68"></circle>
        </g>
        <g id="🔣-Icon/Wikimedia-logos/logoWikimediaDiscovery" transform="translate(24.000000, 24.000000)">
            <mask id="mask-2" fill="white">
                <use xlink:href="#path-1"></use>
            </mask>
            <use id="Mask-2" fill="#000000" fill-rule="evenodd" xlink:href="#path-1"></use>
            <g id="🎨-Color/Accent50-#36c" mask="url(#mask-2)" fill="#3366CC" fill-rule="evenodd">
                <rect id="Rectangle-1" x="0" y="0" width="105.6" height="105.6"></rect>
            </g>
        </g>
    </g>
</svg>