<svg
    width="136px"
    height="136px"
    viewBox="0 0 136 136"
    version="1.1"
    xmlns="http://www.w3.org/2000/svg"
    xmlns:xlink="http://www.w3.org/1999/xlink"
>
    <title>sad-robot</title>
    <g
        id="sad-robot"
        stroke="none"
        stroke-width="1"
        fill="none"
        fill-rule="evenodd"
    >
        <g id="Group">
            <circle
                id="Oval"
                fill="#EAECF0"
                cx="68"
                cy="68"
                r="68"
            ></circle>
            <path
                id="Mask"
                d="M70,40.99684 L96.02,40.99684 C100.428,40.99684 104,44.58084 104,48.98484 L104,82.99684 L74,82.99684 L74,92.99684 L96.02,92.99684 C100.428,92.99684 104,96.54884 104,100.99684 L104,108.99684 L32,108.99684 L32,100.99684 C32,96.57684 35.572,92.99684 39.98,92.99684 L62,92.99684 L62,82.99684 L32,82.99684 L32,48.98484 C32,44.57284 35.572,40.99684 39.98,40.99684 L66,40.99684 L66,32.65684 C63.244908,31.68276 61.59226,28.86552 62.086412,25.98536 C62.580564,23.10524 65.077784,21 68,21 C70.9222,21 73.41944,23.10524 73.9136,25.98536 C74.40776,28.86552 72.75508,31.68276 70,32.65684 L70,40.99684 Z M62,78 C62,74.6862915 64.6862915,72 68,72 C71.3137085,72 74,74.6862915 74,78 M54,64.99684 C57.313708,64.99684 60,62.310548 60,58.99684 C60,55.68312 57.313708,52.99684 54,52.99684 C50.686292,52.99684 48,55.68312 48,58.99684 C48,62.310548 50.686292,64.99684 54,64.99684 Z M82,64.99684 C85.31372,64.99684 88,62.310548 88,58.99684 C88,55.68312 85.31372,52.99684 82,52.99684 C78.68628,52.99684 76,55.68312 76,58.99684 C76,62.310548 78.68628,64.99684 82,64.99684 Z"
                fill="#54595D"
            ></path>
        </g>
    </g>
</svg>