<?xml version="1.0" encoding="utf-8"?>
<svg xmlns="http://www.w3.org/2000/svg" height="20" width="20" viewBox="0 0 20 20">
  <path d="M9.999.116a9.914 9.914 0 0 0-9.916 9.916c0 5.476 4.438 9.914 9.916 9.914a9.913 9.913 0 0 0 9.914-9.914c0-5.478-4.438-9.916-9.914-9.916zm0 18a8.083 8.083 0 1 1 0-16.167 8.083 8.083 0 0 1 0 16.167z"/>
  <path d="M9.764 4.719c-2.5 0-3.22 2.188-3.22 2.188l1.412.854s.298-.791.9-1.23c.517-.374 1.626-.624 2.22.126.7.885-.17 1.587-1.078 2.719-.953 1.186-1 3.655-1 3.655h1.969s.135-2.318 1.04-3.381c.604-.707 1.444-1.338 1.444-2.494 0-1.156-1.187-2.437-3.687-2.437zM8.998 14.03h2v2h-2z"/>
</svg>
