<?xml version="1.0" encoding="UTF-8"?><svg xmlns="http://www.w3.org/2000/svg" viewBox="0 0 1024 768" enable-background="new 0 0 1024 768"><path fill="#E5E5E5" d="M715.6 89.2h85.3v23.3h-85.3zM901.8 89.2h100.8v23.3H901.8zM684.6 89.2h23.3v23.3h-23.3zM808.7 89.2H894v23.3h-85.3z"/><path fill="none" stroke="#E5E5E5" stroke-width="4" stroke-miterlimit="10" d="M0 59.8v589.6l52 38.8 44.6-38.8 53.9 38.8 39.6-32.6 8.1-6.2 48.9 38.8 53.5-38.8 55.1 38.8 50.4-38.8 50.4 38.8 53.5-38.8 46.9 38.8 52-38.8 55.1 38.8 50.4-38.8 50.4 38.8 22.5-16.7 31.4-22.1 19 16.3 29.5 22.5 53.5-38.8 53.9 38.8 10.5-8.1v.4l38.8-28.7v-592H0z"/><path fill="#E5E5E5" d="M554.7 89.2H190.1v23.3h364.6V89.2zm-3.9 19.4H193.9V93.1h356.8v15.5zM626.4 89.2h50.4v23.3h-50.4zM34.9 89.2H159v23.3H34.9zM595.4 89.2h23.3v23.3h-23.3z"/><path fill="#E5E5E5" stroke="#E5E5E5" d="M7.8 126.1h1008.5"/><g fill="#D6D6D6"><path d="M38.5 161.1h335.8v47.6H38.5zM200.9 238.5v132.8h173.5V238.5H200.9zm154.3 105.3H218.9l40.7-52.6 6-2.4 38.3 40.7 20.3-12 31 26.3zM38.5 398.5h333.8v27.6H38.5zM38.5 445.7h333.8v27.6H38.5zM38.5 296.7h135.2v27.6H38.5zM38.5 343.9h135.2v27.6H38.5zM38.5 523.5h333.8v27.6H38.5zM38.5 570.8h333.8v27.6H38.5z"/></g><g fill="#D6D6D6"><path d="M420.2 161.1H756v47.6H420.2zM582.6 238.5v132.8H756V238.5H582.6zm154.3 105.3H600.5l40.7-52.6 6-2.4 38.3 40.7 20.3-12 31.1 26.3zM420.2 398.5H754v27.6H420.2zM420.2 445.7H754v27.6H420.2zM420.2 296.7h135.2v27.6H420.2zM420.2 343.9h135.2v27.6H420.2zM420.2 523.5H754v27.6H420.2zM420.2 570.8H754v27.6H420.2z"/></g><path fill="#D6D6D6" d="M808.7 657.9l10.1-7.1 19 16.3 29.5 22.5 53.5-38.8 53.9 38.8 10.5-8.1v.4l17.5-12.9V162.5h-194z"/><path fill="#347BFF" d="M549.2 551.8H117.8l45.4-148-45.4-147.6h431.4l125 147.8z"/><path fill="#fff" d="M386.6 420.8c-17.3-17-32.4-31.7-41.1-66h60.3v-25.6h-60.3v-33.5h-26v33.9h-60.3v25.6h60.3v8.7c-8.7 33.5-18.8 55-60.3 76.1l8.7 25.6c39.2-21.1 59.9-47.1 69-76.5 8.7 22.2 23.4 40 40 56.9l9.7-25.2zm79.9-83h-34.7l-60.3 170h26l17.3-50.9h68.6l17.3 50.9h26l-60.2-170zm-43.3 93.5l26-67.8 26 67.8h-52z"/></svg>