<?xml version="1.0" encoding="UTF-8" standalone="no"?>
<svg xmlns="http://www.w3.org/2000/svg" viewBox="0 0 264 162" width="264" height="162">
    <path d="M184.304 7.643h21.908v5.984h-21.908zm47.823 0h25.889v5.984h-25.889zm-55.784 0h5.984v5.984h-5.984zm31.873 0h21.908v5.984h-21.908z" id="tools" fill="#e5e5e5"/>
    <path stroke-miterlimit="10" d="M.514.092v151.43l13.355 9.965 11.455-9.965 13.843 9.965 10.171-8.373 2.08-1.592 12.559 9.965 13.741-9.965 14.152 9.965 12.944-9.965 12.944 9.965 13.741-9.965 12.046 9.965 13.355-9.965 14.152 9.965 12.944-9.965 12.944 9.965 5.779-4.289 8.065-5.676 4.88 4.186 7.577 5.779 13.741-9.965 13.843 9.965 2.697-2.08v.103l9.965-7.371v-152.046h-262.973z" id="page" stroke="#e5e5e5" stroke-width="1.027" fill="none"/>
    <path d="M142.98 7.643h-93.642v5.984h93.642v-5.984zm-1.002 4.983h-91.664v-3.981h91.638v3.981zm19.417-4.983h12.944v5.984h-12.944zm-151.918 0h31.873v5.984h-31.873zm143.956 0h5.984v5.984h-5.984z" id="search" fill="#e5e5e5"/>
    <path d="M2.517 17.12h259.017" id="path10" fill="#e5e5e5" stroke="#e5e5e5" stroke-width=".257"/>
    <path d="M10.402 26.109h86.245v12.225h-86.245zm41.71 19.879v34.108h44.561v-34.108h-44.561zm39.63 27.045h-35.007l10.453-13.509 1.541-.616 9.837 10.453 5.214-3.082 7.962 6.755zm-81.339 14.049h85.731v7.089h-85.731zm0 12.123h85.731v7.089h-85.731zm0-38.268h34.724v7.089h-34.724zm0 12.123h34.724v7.089h-34.724zm0 46.127h85.731v7.089h-85.731zm0 12.148h85.731v7.089h-85.731z" id="path14" fill="#d6d6d6"/>
    <path d="M108.435 26.109h86.245v12.225h-86.245zm41.71 19.879v34.108h44.535v-34.108h-44.535zm39.63 27.045h-35.032l10.453-13.509 1.541-.616 9.837 10.453 5.214-3.082 7.988 6.755zm-81.339 14.049h85.731v7.089h-85.731zm0 12.123h85.731v7.089h-85.731zm0-38.268h34.724v7.089h-34.724zm0 12.123h34.724v7.089h-34.724zm0 46.127h85.731v7.089h-85.731zm0 12.148h85.731v7.089h-85.731z" id="path18" fill="#d6d6d6"/>
    <path d="M208.216 153.704l2.594-1.824 4.88 4.186 7.577 5.779 13.741-9.965 13.843 9.965 2.697-2.08v.103l4.495-3.313v-130.087h-49.826z" id="controlBar" fill="#d6d6d6"/>
    <g id="cxlogo">
        <path id="path3000" d="M141.567 126.454h-110.798l11.66-38.011-11.66-37.909h110.798l32.104 37.96z" fill="#347bff"/>
        <path id="path24" d="M99.806 92.809c-4.443-4.366-8.321-8.142-10.556-16.951h15.487v-6.575h-15.487v-8.604h-6.678v8.707h-15.487v6.575h15.487v2.234c-2.234 8.604-4.828 14.126-15.487 19.545l2.234 6.575c10.068-5.419 15.384-12.097 17.722-19.648 2.234 5.702 6.01 10.273 10.273 14.614l2.491-6.472zm20.521-21.317h-8.912l-15.487 43.662h6.678l4.443-13.073h17.619l4.443 13.073h6.678l-15.461-43.662zm-11.121 24.014l6.678-17.413 6.678 17.413h-13.355z" fill="#fff"/>
    </g>
</svg>
