<?xml version="1.0" encoding="UTF-8" standalone="no"?>
<svg xmlns="http://www.w3.org/2000/svg" viewBox="0 0 264 162" width="264" height="162">
    <g id="g2995">
        <path id="tools" d="M79.697 7.643h-21.908v5.984h21.908zm-47.823 0h-25.889v5.984h25.889zm55.784 0h-5.984v5.984h5.984zm-31.873 0h-21.908v5.984h21.908z" fill="#e5e5e5"/>
        <path id="page" d="M263.487.092v151.43l-13.355 9.965-11.455-9.965-13.843 9.965-10.171-8.373-2.08-1.592-12.559 9.965-13.741-9.965-14.152 9.965-12.944-9.965-12.944 9.965-13.741-9.965-12.046 9.965-13.355-9.965-14.152 9.965-12.944-9.965-12.944 9.965-5.779-4.289-8.065-5.676-4.88 4.186-7.577 5.779-13.741-9.965-13.843 9.965-2.697-2.08v.103l-9.965-7.371v-152.046h262.973z" stroke-miterlimit="10" stroke="#e5e5e5" stroke-width="1.027" fill="none"/>
        <path id="search" d="M121.021 7.643h93.642v5.984h-93.642v-5.984zm1.002 4.983h91.664v-3.981h-91.638v3.981zm-19.417-4.983h-12.944v5.984h12.944zm151.918 0h-31.873v5.984h31.873zm-143.956 0h-5.984v5.984h5.984z" fill="#e5e5e5"/>
        <path id="path10" d="M261.484 17.12h-259.017" fill="#e5e5e5" stroke="#e5e5e5" stroke-width=".257"/>
        <path id="path14" d="M253.599 26.109h-86.245v12.225h86.245zm-41.71 19.879v34.108h-44.561v-34.108h44.561zm-39.63 27.045h35.007l-10.453-13.509-1.541-.616-9.837 10.453-5.214-3.082-7.962 6.755zm81.339 14.049h-85.731v7.089h85.731zm0 12.123h-85.731v7.089h85.731zm0-38.268h-34.724v7.089h34.724zm0 12.123h-34.724v7.089h34.724zm0 46.127h-85.731v7.089h85.731zm0 12.148h-85.731v7.089h85.731z" fill="#d6d6d6"/>
        <path id="path18" d="M155.566 26.109h-86.245v12.225h86.245zm-41.71 19.879v34.108h-44.535v-34.108h44.535zm-39.63 27.045h35.032l-10.453-13.509-1.541-.616-9.837 10.453-5.214-3.082-7.988 6.755zm81.339 14.049h-85.731v7.089h85.731zm0 12.123h-85.731v7.089h85.731zm0-38.268h-34.724v7.089h34.724zm0 12.123h-34.724v7.089h34.724zm0 46.127h-85.731v7.089h85.731zm0 12.148h-85.731v7.089h85.731z" fill="#d6d6d6"/>
        <path id="controlBar" d="M55.785 153.704l-2.594-1.824-4.88 4.186-7.577 5.779-13.741-9.965-13.843 9.965-2.697-2.08v.103l-4.495-3.313v-130.087h49.826z" fill="#d6d6d6"/>
        <g id="cxlogo">
            <path d="M122.434 126.454h110.798l-11.66-38.011 11.66-37.909h-110.798l-32.104 37.96z" id="path3000" fill="#347bff"/>
            <path d="M164.195 92.809c4.443-4.366 8.321-8.142 10.556-16.951h-15.487v-6.575h15.487v-8.604h6.678v8.707h15.487v6.575h-15.487v2.234c2.234 8.604 4.828 14.126 15.487 19.545l-2.234 6.575c-10.068-5.419-15.384-12.097-17.722-19.648-2.234 5.702-6.01 10.273-10.273 14.614l-2.491-6.472zm-20.521-21.317h8.912l15.487 43.662h-6.678l-4.443-13.073h-17.619l-4.443 13.073h-6.678l15.461-43.662zm11.121 24.014l-6.678-17.413-6.678 17.413h13.355z" id="path24" fill="#fff"/>
        </g>
    </g>
</svg>
