<?xml version="1.0" encoding="UTF-8"?><svg xmlns="http://www.w3.org/2000/svg" viewBox="0 0 1024 768" enable-background="new 0 0 1024 768"><path fill="#E5E5E5" d="M223 89.2h85.3v23.3H223zM21.3 89.2h100.8v23.3H21.3zM316 89.2h23.3v23.3H316zM129.9 89.2h85.3v23.3h-85.3z"/><path fill="none" stroke="#E5E5E5" stroke-width="4" stroke-miterlimit="10" d="M0 59.8v592l38.8 28.7v-.4l10.5 8.1 53.9-38.8 53.5 38.8 29.5-22.5 19-16.3 31.4 22.1 22.5 16.7 50.4-38.8 50.4 38.8 55.1-38.8 52 38.8 46.9-38.8 53.5 38.8 50.4-38.8 50.4 38.8 55.1-38.8 53.5 38.8 48.9-38.8 8.1 6.2 39.6 32.6 53.9-38.8 44.6 38.8 52-38.8V59.8H0z"/><path fill="#E5E5E5" d="M469.2 112.5h364.6V89.2H469.2v23.3zm4-3.9V93.1H830v15.5H473.1h.1zM347.1 89.2h50.4v23.3h-50.4zM864.9 89.2H989v23.3H864.9zM405.2 89.2h23.3v23.3h-23.3z"/><path fill="#E5E5E5" stroke="#E5E5E5" d="M7.6 126.1h1008.5"/><g fill="#D6D6D6"><path d="M649.6 161.1h335.8v47.6H649.6zM649.5 238.5v132.8H823V238.5H649.5zm154.3 105.3H667.5l40.7-52.6 6-2.4 38.3 40.7 20.3-12 31 26.3zM651.6 398.5h333.8v27.6H651.6zM651.6 445.7h333.8v27.6H651.6zM850.2 296.7h135.2v27.6H850.2zM850.2 343.9h135.2v27.6H850.2zM651.6 523.5h333.8v27.6H651.6zM651.6 570.8h333.8v27.6H651.6z"/></g><g fill="#D6D6D6"><path d="M267.9 161.1h335.8v47.6H267.9zM267.9 238.5v132.8h173.4V238.5H267.9zm154.3 105.3H285.8l40.7-52.6 6-2.4 38.3 40.7 20.3-12 31.1 26.3zM269.9 398.5h333.8v27.6H269.9zM269.9 445.7h333.8v27.6H269.9zM468.5 296.7h135.2v27.6H468.5zM468.5 343.9h135.2v27.6H468.5zM269.9 523.5h333.8v27.6H269.9zM269.9 570.8h333.8v27.6H269.9z"/></g><path fill="#D6D6D6" d="M215.2 162.5h-194V669l17.5 12.9v-.4l10.5 8.1 53.9-38.8 53.5 38.8 29.5-22.5 19-16.3 10.1 7.1z"/><path fill="#347BFF" d="M349.7 404l125-147.8h431.4l-45.4 147.6 45.4 148H474.7z"/><path fill="#fff" d="M624.6 420.8c-17.3-17-32.4-31.7-41.1-66h60.3v-25.6h-60.3v-33.5h-26v33.9h-60.3v25.6h60.3v8.7c-8.7 33.5-18.8 55-60.3 76.1l8.7 25.6c39.2-21.1 59.9-47.1 69-76.5 8.7 22.2 23.4 40 40 56.9l9.7-25.2zm79.9-83h-34.7l-60.3 170h26l17.3-50.9h68.6l17.3 50.9h26l-60.2-170zm-43.3 93.5l26-67.8 26 67.8h-52z"/></svg>