<?xml version="1.0" encoding="UTF-8"?>
<svg xmlns="http://www.w3.org/2000/svg" viewBox="-288 514.5 264 162" width="264" height="162">
	<path d="M-208.3 522.2h-21.9v6h21.9v-6zm-47.8 0h-25.9v6h25.9v-6zm55.8 0h-6v6h6v-6zm-31.9 0h-21.9v6h21.9v-6z" id="tools" fill="#eaecf0"/>
	<path d="M-24.5 514.6v151.4l-13.4 10-11.5-10-13.8 10-10.2-8.4-2.1-1.6-12.5 10-13.7-10-14.2 10-12.9-10-12.9 10-13.7-10-12 10-13.4-10-14.2 10-12.9-10-12.9 10-5.8-4.3-8.1-5.7-4.9 4.2-7.6 5.8-13.7-10-13.8 10-2.7-2.1v.1l-10-7.4v-152h262.9z" id="page" fill="#fff" stroke="#eaecf0" stroke-width="1.027" stroke-miterlimit="10"/>
	<path d="M-167 522.2h93.6v6h-93.6v-6zm1 5h91.7v-4h-91.7v4zm-19.4-5h-12.9v6h12.9v-6zm151.9 0h-31.9v6h31.9v-6zm-143.9 0h-6v6h6v-6z" id="search" fill="#eaecf0"/>
	<path d="M-26.5 531.7h-259" id="path10" fill="#eaecf0" stroke="#eaecf0" stroke-width=".257"/>
	<path d="M-34.4 540.7h-86.2v12.2h86.2v-12.2zm-41.7 19.8v34.1h-44.6v-34.1h44.6zm-39.6 27.1h35l-10.5-13.5-1.5-.6-9.8 10.5-5.2-3.1-8 6.7zm81.3 14h-85.7v7.1h85.7v-7.1zm0 12.2h-85.7v7.1h85.7v-7.1zm0-38.3h-34.7v7.1h34.7v-7.1zm0 12.1h-34.7v7.1h34.7v-7.1zm0 46.1h-85.7v7.1h85.7v-7.1zm0 12.2h-85.7v7.1h85.7v-7.1z" id="path14" fill="#c8ccd1"/>
	<path d="M-132.4 540.7h-86.2v12.2h86.2v-12.2zm-41.7 19.8v34.1h-44.5v-34.1h44.5zm-39.7 27.1h35l-10.5-13.5-1.5-.6-9.8 10.5-5.2-3.1-8 6.7zm81.4 14h-85.7v7.1h85.7v-7.1zm0 12.2h-85.7v7.1h85.7v-7.1zm0-38.3h-34.7v7.1h34.7v-7.1zm0 12.1h-34.7v7.1h34.7v-7.1zm0 46.1h-85.7v7.1h85.7v-7.1zm0 12.2h-85.7v7.1h85.7v-7.1z" id="path18" fill="#c8ccd1"/>
	<path d="M-232.2 668.3l-2.6-1.8-4.9 4.2-7.6 5.8-13.7-10-13.8 10-2.7-2.1v.1l-4.5-3.3v-130.2h49.8v127.3z" id="controlBar" fill="#c8ccd1"/>
	<path d="M-165.6 641h110.8l-11.7-38 11.7-37.9h-110.8l-32.1 38 32.1 37.9z" id="path3000" fill="#36c"/>
	<g id="g14" fill="#fff">
		<path d="M-116 628.9l-14.5-44.8h-10.3l-14.5 44.8h7.6l3.1-10.3h18.3l2.8 10.3h7.5zm-12.7-17.2h-13.8l6.9-20.7 6.9 20.7z" id="path16"/>
		<path d="M-96 606.1c3.4-4.1 6.2-9 8.3-15.2h5.5v-7.2h-14l-3.3-6.6h-6.9l3.3 6.6h-22.2l1.7 6.9h7.6c2.1 6.6 4.8 11.4 8.6 15.2-2.4 1.7-5.9 3.1-9.3 4.1l2.1 6.9c4.8-1.7 9.3-3.4 12.8-5.9 4.1 2.8 16.2 7.6 16.2 7.6l4.5-6.2c0 .1-11.1-3.7-14.9-6.2zm-5.8-4.8c-3.4-3.4-5.2-5.9-6.6-10.3h13.1c-1.4 4.5-2.7 6.9-6.5 10.3z" id="path19"/>
	</g>
</svg>
