<?xml version="1.0" encoding="UTF-8"?>
<svg xmlns="http://www.w3.org/2000/svg" viewBox="-288 514.5 264 162" width="264" height="162">
	<path d="M-103.7 522.2h21.9v6h-21.9v-6zm47.8 0h25.9v6h-25.9v-6zm-55.8 0h6v6h-6v-6zm31.9 0h21.9v6h-21.9v-6z" id="tools" fill="#eaecf0"/><path d="M-287.5 514.6v151.4l13.4 10 11.5-10 13.8 10 10.2-8.4 2.1-1.6 12.6 10 13.7-10 14.2 10 12.9-10 12.9 10 13.7-10 12 10 13.4-10 14.2 10 12.9-10 12.9 10 5.8-4.3 8.1-5.7 4.9 4.2 7.6 5.8 13.7-10 13.8 10 2.7-2.1v.1l10-7.4v-152h-263z" id="page" fill="#fff" stroke="#eaecf0" stroke-width="1.027" stroke-miterlimit="10"/>
	<path d="M-145 522.2h-93.6v6h93.6v-6zm-1 5h-91.7v-4h91.6l.1 4zm19.4-5h12.9v6h-12.9v-6zm-151.9 0h31.9v6h-31.9v-6zm143.9 0h6v6h-6v-6z" id="search" fill="#eaecf0"/>
	<path d="M-285.5 531.7h259" id="path10" fill="#eaecf0" stroke="#eaecf0" stroke-width=".257"/>
	<path d="M-277.6 540.7h86.2v12.2h-86.2v-12.2zm41.7 19.8v34.1h44.6v-34.1h-44.6zm39.6 27.1h-35l10.5-13.5 1.5-.6 9.8 10.5 5.2-3.1 8 6.7zm-81.3 14h85.7v7.1h-85.7v-7.1zm0 12.2h85.7v7.1h-85.7v-7.1zm0-38.3h34.7v7.1h-34.7v-7.1zm0 12.1h34.7v7.1h-34.7v-7.1zm0 46.1h85.7v7.1h-85.7v-7.1zm0 12.2h85.7v7.1h-85.7v-7.1z" id="path14" fill="#c8ccd1"/>
	<path d="M-179.6 540.7h86.2v12.2h-86.2v-12.2zm41.7 19.8v34.1h44.5v-34.1h-44.5zm39.7 27.1h-35l10.5-13.5 1.5-.6 9.8 10.5 5.2-3.1 8 6.7zm-81.4 14h85.7v7.1h-85.7v-7.1zm0 12.2h85.7v7.1h-85.7v-7.1zm0-38.3h34.7v7.1h-34.7v-7.1zm0 12.1h34.7v7.1h-34.7v-7.1zm0 46.1h85.7v7.1h-85.7v-7.1zm0 12.2h85.7v7.1h-85.7v-7.1z" id="path18" fill="#c8ccd1"/>
	<path d="M-79.8 668.3l2.6-1.8 4.9 4.2 7.6 5.8 13.7-10 13.8 10 2.7-2.1v.1l4.5-3.3v-130.2h-49.8v127.3z" id="controlBar" fill="#c8ccd1"/>
	<path d="M-146.4 641h-110.8l11.7-38-11.7-37.9h110.8l32.1 38-32.1 37.9z" id="path3000" fill="#36c"/>
	<g id="g14" fill="#fff">
		<path d="M-188.4 626.9l2.8-10.3h18.3l3.1 10.3h7.6l-14.5-44.8h-10.3l-14.5 44.8h7.5zm12-37.9l6.9 20.7h-13.8l6.9-20.7z" id="path16"/>
		<path d="M-188.4 588.6l1.7-6.9h-19.1l-3.3-6.6h-6.9l3.3 6.6h-17.1v7.2h5.5c2.1 6.2 4.8 11 8.3 15.2-3.8 2.4-14.8 6.2-14.8 6.2l4.5 6.2s12.1-4.8 16.2-7.6c3.4 2.4 7.9 4.1 12.8 5.9l2.1-6.9c-3.4-1-6.9-2.4-9.3-4.1 3.8-3.8 6.6-8.6 8.6-15.2h7.5zm-21.8 10.7c-3.8-3.4-5.2-5.9-6.6-10.3h13.1c-1.3 4.5-3 6.9-6.5 10.3z" id="path19"/>
	</g>
</svg>
