<?xml version="1.0" encoding="UTF-8" standalone="no"?><svg xmlns="http://www.w3.org/2000/svg" viewBox="-405 580.5 30 30"><style type="text/css" id="style3"/><g id="g5" fill="#00af89"><path d="M-396.2 592.3c.4 1.2.7 1.9 1.8 2.8.9-.9 1.4-1.6 1.8-2.8h-3.6z" id="path7"/><path id="polygon9" d="M-383.4 597.9l-1.9-5.6-1.9 5.6z"/><path d="M-402.2 580.5v24.4c0 3.2 2.4 5.6 5.6 5.6h18.8v-30h-24.4zm7.8 17.2c-1.1.7-4.4 2.1-4.4 2.1l-1.2-1.7s3-1 4-1.7c-.9-1.1-1.7-2.4-2.2-4.1h-1.5v-2h4.6l-.9-1.8h1.9l.9 1.8h5.2l-.5 1.9h-2.1c-.6 1.8-1.3 3.1-2.3 4.1.7.5 1.6.8 2.5 1.1l-.6 1.9c-1.3-.5-2.5-1-3.4-1.6zm12.4 4.8l-.8-2.8h-4.9l-.7 2.8h-2.1l3.9-12.1h2.8l3.9 12.1h-2.1z" id="path11"/></g></svg>
