<?xml version="1.0" encoding="UTF-8" standalone="no"?>
<svg xmlns="http://www.w3.org/2000/svg" viewBox="0 0 30 30">
    <g fill="#00af89"><path d="M21.129 17.268l-1.816-5.443-1.816 5.443z"/><path d="M2.813 0v24.375c0 3.188 2.438 5.625 5.625 5.625h18.75v-30h-24.375zm3.428 20.174l-1.09-1.453c3.451-2.543 4.447-6.082 4.629-6.902h-4.541v-1.816h4.541v-2.725h1.816v2.725h4.992l-.633 1.816h-4.266c.27.727 1.09 2.725 2.725 4.629l-.633 1.998c-1.359-1.359-2.268-2.906-2.906-4.084-.732 1.729-2.186 3.996-4.635 5.813zm16.611 2.543l-1.178-3.633h-4.811l-1.178 3.633h-1.998l4.266-12.709h2.725l4.178 12.709h-2.004z"/></g>
</svg>
