<?xml version="1.0" encoding="UTF-8"?>
<svg xmlns="http://www.w3.org/2000/svg" viewBox="0 0 28 28">
	<g fill="#72777d">
		<path d="M20.92 4.012c-1.811.01-3.613.709-5 2.094l-3.031 3c-.251.251-.492.569-.688.844-.051.051-.101.113-.125.188 1.473-.4 3.019-.357 4.469.094l.25-.25 1.656-1.688c1.473-1.473 3.871-1.473 5.344 0 1.473 1.473 1.473 3.839 0 5.313l-1.969 1.906-.375.406-.406.375-.594.656c-.65.65-1.497 1.012-2.375 1.063-.176.024-.375.024-.5 0-.302-.024-.469-.063-.469-.063-.725-.125-1.424-.455-2-1.031-.549-.549-.875-1.213-1-1.938v-.094c-.65.051-1.28.315-1.781.813l-1 1c.349.874.861 1.705 1.563 2.406.701.701 1.533 1.241 2.406 1.594.176.074.324.105.5.156l.438.125.094.031c1.45.325 3 .201 4.375-.375.176-.074.324-.148.5-.25v-.031l.094-.031c.074-.024.137-.074.188-.125.501-.302.983-.698 1.406-1.125l3.031-3c2.774-2.774 2.774-7.289 0-10.063-1.363-1.346-3.189-2.01-5-2zm-6.344 6.813c-1.111-.075-2.219.099-3.25.531l-.5.25h-.031l-.094.063c-.074.024-.137.074-.188.125-.501.298-.96.671-1.406 1.094l-3 3c-2.774 2.774-2.774 7.257 0 10.031 2.774 2.778 7.289 2.774 10.063 0l3-3.031c.274-.251.519-.515.719-.813l.125-.219c-1.473.4-3.019.388-4.469-.063l-.25.25-1.688 1.656c-1.473 1.473-3.839 1.473-5.313 0-1.473-1.473-1.473-3.839 0-5.313l1.906-1.906.375-.375.406-.406.594-.594c.674-.674 1.497-1.047 2.375-1.125.176-.024.375-.024.5 0 .298.024.469.063.469.063.725.125 1.424.487 2 1.063.549.549.875 1.213 1 1.938v.063c.65-.051 1.276-.315 1.75-.813l1-1c-.349-.874-.861-1.709-1.563-2.406-.697-.697-1.533-1.21-2.406-1.563-.149-.074-.324-.137-.5-.188l-.406-.125h-.031l-.063-.031c-.362-.081-.755-.131-1.125-.156z"/>
		<path d="M5.053.173v4.843h-4.843v2.153h4.843v4.843h2.153v-4.843h4.843v-2.153h-4.843v-4.843h-2.153z"/>
	</g>
</svg>
