<?xml version="1.0" encoding="UTF-8"?>
<svg xmlns="http://www.w3.org/2000/svg" viewBox="0 0 612 792">
    <path d="M302.8 142.9l-77.1 77.1c-6.4 6.4-12.8 14-17.8 21-1.3 1.3-2.6 3.2-3.2 5.1 37.6-10.2 77.1-9.6 114.1 1.9l6.4-6.4 42.7-42.7c37.6-37.6 98.2-37.6 135.8 0 37.6 37.6 37.6 98.2 0 135.8l-49.7 48.5-10.2 10.2-9.6 9.6-15.9 16.6c-16.6 16.6-38.2 26.1-60.6 27.4-4.5.6-8.9.6-12.1 0-7.7-.6-12.1-1.3-12.1-1.3-18.5-3.2-36.3-12.1-51-26.8-14-14-22.9-31.2-26.1-49.7v-1.9c-16.6 1.3-32.5 8.3-45.3 21l-25.5 25.5c8.9 22.3 22.3 43.3 40.2 61.2 17.9 17.9 38.9 31.2 61.2 40.2 4.5 1.9 8.3 3.2 12.8 4.5 3.2 1.3 7 1.9 10.8 3.2h.6c.6 0 1.3 0 1.9.6 37 8.3 76.5 5.1 111.6-9.6 4.5-1.9 8.3-3.8 12.8-6.4 0 0 .6 0 .6-.6.6-.6 1.3-.6 1.9-1.3 1.9-.6 3.8-1.9 5.1-3.2 12.8-7.7 24.9-17.2 35.7-28.1l77.1-77.1c70.8-70.8 70.8-185.5 0-256.3-69.6-68.7-184.3-68.7-255.1 2z" fill="#c8ccd1" />
    <path d="M309.2 649.1l77.1-77.8c7-6.4 12.8-13.4 17.9-21 1.3-1.9 2.6-3.2 3.2-5.1-37.6 10.2-77.1 9.6-114.1-1.9l-6.4 6.4-42.7 42.7c-37.6 37.6-98.2 37.6-135.8 0-37.6-37.6-37.6-98.2 0-135.8l48.4-48.5 10.2-10.2 9.6-9.6 15.9-15.9c17.2-17.2 38.2-26.1 60.6-28.1 4.5-.6 8.9-.6 12.1 0 7.6.6 12.1 1.3 12.1 1.3 18.5 3.2 36.3 12.1 51 26.8 14 14 22.9 31.2 26.1 49.7v1.9c16.6-1.3 32.5-8.3 44.6-21l25.5-25.5c-8.9-22.3-22.3-43.4-40.2-61.2-17.8-17.8-38.9-31.2-61.2-40.2-3.8-1.9-8.3-3.2-12.8-4.5-3.2-1.3-7-1.9-10.8-3.2h-.5l-1.9-.6c-37-8.3-76.5-5.1-111.6 9.6-4.5 1.9-8.9 3.8-12.8 5.7 0 0-.6 0-.6.6-.6.6-1.3.6-1.9 1.3-1.9.6-3.8 1.9-5.1 3.2-12.8 7.6-24.9 17.2-36.3 28l-75.9 76.5c-70.8 70.8-70.8 185.5 0 256.3 70.8 70.9 185.5 70.9 256.3.1z" fill="#c8ccd1" />
    <path d="M519.156 551.837c-36.944-18.558-66.602-15.957-66.602-15.957v165.986s13.876 2.428 13.876-6.071v-70.765c7.978-2.602 21.854-4.856 52.9 15.263 39.892 23.415 58.277-7.111 58.277-7.111v-88.456c-.173 0-21.334 24.802-58.451 7.111z" fill="#c8ccd1" />
</svg>
