<?xml version="1.0" encoding="UTF-8"?>
<svg xmlns="http://www.w3.org/2000/svg" width="16" height="16" viewBox="0 0 16 16">
  <g fill="#222">
    <path d="M4.112 1.39c-.14.14-.212.317-.212.53 0 .244.106.47.283.6h7.634c.167-.13.283-.355.283-.6v-.035c0-.196-.064-.366-.177-.495h-7.81zm-.99.07c-.88.2-1.555.977-1.555 1.91v10.603c0 1.078.9 1.945 1.98 1.945h8.942c1.074 0 1.94-.866 1.94-1.945V3.37c0-.944-.667-1.722-1.555-1.91.045.15.07.296.07.46 0 .233-.053.474-.14.672.294.13.494.426.494.778v10.603c0 .467-.346.813-.813.813H3.545c-.47 0-.848-.345-.848-.813V3.37c0-.352.19-.65.495-.778-.095-.2-.14-.433-.14-.672 0-.166.02-.307.07-.46z" style="text-indent:0;text-align:start;line-height:normal;text-transform:none;block-progression:tb;-inkscape-font-specification:Sans" color="#000" overflow="visible" font-family="Sans"/>
    <path d="M7.328.082c-.373 0-.684.307-.706.672l-.036.39H4.678c-.428 0-.778.35-.778.776 0 .43.35.743.778.743h6.68c.43 0 .742-.313.742-.743v-.035c0-.43-.313-.742-.742-.742H9.413L9.38.753c-.025-.363-.3-.67-.674-.67H7.33z"/>
  </g>
</svg>
