<?xml version="1.0" encoding="UTF-8"?>
<svg xmlns="http://www.w3.org/2000/svg" viewBox="0 0 612 792">
    <path d="M267.563 480.373v-14.732c0-21.249 3.393-38.481 10.178-51.695 6.785-13.392 18.749-27.231 35.892-41.517 19.464-16.428 32.231-28.213 38.303-35.356 6.071-7.142 10.357-14.285 12.857-21.428 2.5-7.142 3.75-15.446 3.75-24.91 0-17.678-5.714-31.249-17.142-40.713-11.428-9.464-27.857-14.196-49.285-14.196-14.285 0-28.303 1.786-42.053 5.357-13.571 3.572-28.839 9.464-45.803 17.678l-16.875-38.303c33.928-18.035 69.909-27.053 107.944-27.053 33.928 0 60.623 8.482 80.087 25.446 19.464 16.786 29.196 40.357 29.196 70.713 0 13.214-1.786 24.91-5.357 35.088-3.572 10.179-9.018 19.821-16.339 28.928-7.143 9.107-21.518 22.678-43.124 40.713-17.678 15.178-29.464 27.767-35.356 37.767-5.714 9.821-8.571 22.857-8.571 39.106v9.107h-38.303m-12.589 80.623c0-24.464 11.339-36.695 34.017-36.696 10.357 0 18.482 3.125 24.374 9.375 6.071 6.071 9.107 15.178 9.107 27.321 0 11.964-3.036 21.25-9.107 27.856-6.071 6.428-14.196 9.643-24.374 9.643-10 0-18.214-2.946-24.642-8.839-6.25-5.893-9.375-15.446-9.375-28.66" style="-inkscape-font-specification:Noto Sans" font-size="144" font-family="Noto Sans" letter-spacing="0" word-spacing="0" fill="#c8ccd1" />
</svg>
