<svg xmlns="http://www.w3.org/2000/svg" viewBox="0 0 30 30"><path d="M3.406 20.75c2.219 2.219 5.125 3.438 8.281 3.438 2.75 0 5.344-.938 7.438-2.656l8.5 7.688s1.906-.5 2.375-2.625l-8.531-7.719c3-4.563 2.469-10.688-1.5-14.656-2.219-2.219-5.125-3.438-8.25-3.438s-6.063 1.219-8.281 3.406c-4.594 4.594-4.563 12-.031 16.563zm1.938-13.969c.094-.125.219-.25.344-.344 1.625-1.594 3.75-2.5 6.031-2.5 2.281 0 4.406.906 6.031 2.5 3.313 3.313 3.344 8.719-.031 12.063-1.625 1.625-3.75 2.5-6.031 2.5-2.281 0-4.406-.906-6.031-2.5-3.188-3.188-3.344-8.344-.313-11.719z" fill="#555"/></svg>