<?xml version="1.0" encoding="UTF-8"?>
<svg xmlns="http://www.w3.org/2000/svg" width="80" height="80" viewBox="0 0 80 80">
    <defs id="defs16">
        <linearGradient x1="326" y1="-301.074" x2="326" y2="-329.776" id="SVGID_1_" gradientUnits="userSpaceOnUse" gradientTransform="matrix(1 0 0 -1 -286 -294)">
            <stop id="stop6" offset="0" stop-color="#fff" stop-opacity=".95"/>
            <stop id="stop8" offset=".787" stop-color="#fff"/>
        </linearGradient>
    </defs>
    <path d="M67.17 46.794l3.664-3.662c.1-.083.19-.184.284-.278l.053-.056c.19-.19.355-.408.48-.64.89-1.258 1.355-2.716 1.355-4.257V14.47c0-1.99-.778-3.874-2.19-5.288C69.404 7.782 67.527 7 65.53 7H42.104c-1.66 0-3.23.536-4.552 1.56-.062.04-.12.093-.18.14-.36.3-.688.616-.975.96l-2.885 2.882c-.25.206-.477.4-.685.604l-11.587 11.6L10.974 35.01l-2.497 2.498c-1.98 1.975-1.98 5.183 0 7.15l2.497 2.506 21.854 21.854 2.5 2.498c1.98 1.978 5.183 1.978 7.154 0l2.505-2.498 10.262-10.27 11.59-11.584c.114-.11.215-.224.33-.37zm-6.702-27.26c3.744 3.745 3.738 9.785 0 13.516-3.73 3.74-9.78 3.74-13.518 0-3.727-3.73-3.734-9.785 0-13.515 3.73-3.732 9.796-3.732 13.518 0z" id="path12" fill="#72777d"/>
</svg>
