<?xml version="1.0" encoding="UTF-8"?>
<svg xmlns="http://www.w3.org/2000/svg" width="24" height="24" viewBox="0 0 24 24">
	<path d="M12.25 2.594c1.065.146 1.844 1.081 1.844 2.219 0 .4-.206.787-.406 1.188h1.156l-8.844 8.844v-1.344c-.4.5-1.013.906-1.813.906-1.2 0-2.188-1.019-2.188-2.219 0-1.3.987-2.281 2.188-2.281.7 0 1.412.306 1.813.906v-4.813h4c-.2-.4-.406-.787-.406-1.188 0-1.2.988-2.219 2.188-2.219.163-.013.317-.021.469 0zm8.531.313l1.406 1.406-4.094 4.094v1.188l-.594-.094c-.211 0-.399.047-.594.094l-1.813 1.813c-.047.194-.094.383-.094.594 0 1.4 1.1 2.5 2.5 2.5.2 0 .394.006.594-.094v3.594h-4.906c.5.4.906 1.012.906 1.813 0 1.2-1.012 2.188-2.313 2.188-1.2 0-2.188-.988-2.188-2.188 0-.7.306-1.413.906-1.813h-2l-4 4-1.406-1.406 2.906-2.906 11.688-11.688 3.094-3.094z"/>
</svg>
